# xmcd CD database file
#
# Track frame offsets:
#	150
#	17342
#	39307
#	62215
#	81285
#	105187
#	128142
#	144242
#	164240
#	186137
#	206842
#	230405
#
# Disc length: 3400 seconds
#
# Revision: 1
# Processed by: cddbd v1.5.1PL0 Copyright (c) Steve Scherf et al.
# Submitted via: CDex 1.51
#
DISCID=9c0d460c
DTITLE=S.E.N.S. - 恋愛集
DYEAR=2004
DGENRE=Rock
TTITLE0=Remembering Me
TTITLE1=Heart
TTITLE2=L'oiseau Bleu
TTITLE3=Refrain
TTITLE4=人と時と風の中へ
TTITLE5=風のように
TTITLE6=Missing You
TTITLE7=Flying
TTITLE8=Maria
TTITLE9=Forbidden Love
TTITLE10=Love
TTITLE11=Wish
EXTD=YEAR: 2004
EXTT0=
EXTT1=
EXTT2=
EXTT3=
EXTT4=
EXTT5=
EXTT6=
EXTT7=
EXTT8=
EXTT9=
EXTT10=
EXTT11=
PLAYORDER=
